<svg version="1.1" id="Layer_1" xmlns="http://www.w3.org/2000/svg" xmlns:xlink="http://www.w3.org/1999/xlink" x="0px" y="0px"
	 width="100%" viewBox="0 0 1024 1024" enable-background="new 0 0 1024 1024" xml:space="preserve">
<path fill="#000000" opacity="1.000000" stroke="none" 
	d="
M932.129944,508.104736 
	C931.755676,607.754883 901.813843,696.889954 839.967407,774.535950 
	C790.561707,836.562927 726.803894,878.948608 652.738342,906.283569 
	C625.028687,916.510193 596.404846,923.140015 567.179321,927.153564 
	C542.205872,930.583130 517.035461,931.564636 491.932617,930.116699 
	C390.909424,924.289612 303.085052,886.330017 228.255325,818.771973 
	C177.727219,773.153992 141.832626,717.364258 118.880447,653.272400 
	C109.265060,626.422302 102.683052,598.802856 98.906960,570.575134 
	C96.019203,548.988037 94.142365,527.263611 94.724678,505.442169 
	C97.207993,412.382843 126.023193,328.513824 183.200470,254.821411 
	C227.210922,198.098969 282.510620,155.763626 348.595093,127.717369 
	C381.179321,113.888611 415.006714,104.309174 450.161530,99.477676 
	C473.428680,96.279961 496.766876,94.242088 520.233765,94.859650 
	C620.451477,97.497040 709.723267,129.787735 785.989929,195.337219 
	C857.418030,256.728058 902.994507,333.958496 923.044067,426.033539 
	C928.208618,449.751190 931.190125,473.816833 931.396057,498.161652 
	C931.422729,501.316223 931.871155,504.467194 932.129944,508.104736 
M574.247925,128.385727 
	C561.535828,127.054794 548.846680,124.920578 536.106995,124.558014 
	C508.497711,123.772263 480.912476,123.997322 453.435272,128.128159 
	C419.832520,133.179871 387.406097,142.127762 356.331268,155.755157 
	C297.089111,181.734863 247.191437,219.969101 207.088531,270.810028 
	C156.992401,334.319977 128.996460,406.544800 123.586868,487.157257 
	C121.446999,519.045105 123.517235,550.926392 129.131210,582.565613 
	C138.700638,636.497009 158.737823,686.009033 189.912354,731.027893 
	C194.798843,738.084351 194.808746,738.084839 202.727249,734.383789 
	C255.870636,709.544556 307.892517,682.540955 358.885681,653.545532 
	C361.971954,651.790649 363.943359,649.498840 364.981354,646.073547 
	C367.974121,636.197327 369.636536,626.038635 371.836578,615.990479 
	C373.124969,610.105835 371.867981,605.112000 368.640991,600.454773 
	C359.975708,587.948975 353.992126,574.438049 352.576630,559.133545 
	C352.057983,553.526001 349.962036,550.250122 343.531433,549.064636 
	C332.659027,547.060242 325.694122,536.965454 325.590942,525.739197 
	C325.533020,519.434631 326.783142,512.963379 324.847260,506.846069 
	C317.133575,482.471252 317.049927,457.415283 317.633545,432.259369 
	C317.904266,420.590729 322.803223,412.265045 331.490723,409.804932 
	C329.466522,402.004669 329.296753,393.855988 326.986542,386.034668 
	C325.819275,382.082642 325.023376,378.022766 324.541656,373.857056 
	C323.323181,363.320221 321.641357,352.848511 321.009003,342.231720 
	C320.178223,328.283264 319.865265,314.370026 328.255249,302.313904 
	C331.729126,297.322021 333.190125,292.371613 332.692078,286.526337 
	C332.508820,284.375610 332.706299,282.195099 332.659607,280.029694 
	C332.371155,266.645508 338.431641,256.747711 349.478912,249.696167 
	C351.480286,248.418671 352.722015,247.057632 352.860199,244.614578 
	C353.220428,238.244995 356.821869,234.451370 362.887878,233.250961 
	C371.191223,231.607849 376.762573,227.522110 380.080872,219.236267 
	C384.108917,209.178177 391.686401,203.186920 403.440521,204.662720 
	C404.174927,204.754929 404.976929,204.309067 405.682556,204.130005 
	C405.915833,194.162201 409.492462,190.652618 419.540100,189.589081 
	C429.803528,188.502716 438.727722,183.300201 446.433105,177.337341 
	C453.666016,171.740112 462.314575,167.998398 470.616547,171.833572 
	C475.874878,174.262726 480.089874,173.953979 484.985931,170.638321 
	C492.679962,165.427933 501.795593,163.915756 510.643311,165.935562 
	C515.243164,166.985596 519.393677,168.531967 524.052368,167.050262 
	C525.536316,166.578293 526.994080,166.934662 528.489258,167.143036 
	C537.954285,168.462189 546.646362,172.497467 555.805847,174.894943 
	C558.243652,175.533066 560.360352,175.676163 562.493164,174.411163 
	C570.071777,169.916245 577.531311,169.562515 584.921448,174.871216 
	C585.850220,175.538376 586.981628,176.016708 588.090759,176.324615 
	C596.550476,178.673035 602.609253,184.754913 609.136719,190.023346 
	C611.073914,191.586884 612.451416,192.640411 615.191772,192.216599 
	C622.457214,191.092941 631.364990,195.373230 631.913452,200.919342 
	C632.561768,207.474579 636.579163,209.912903 641.572021,212.293106 
	C649.738403,216.186172 655.648621,222.033157 658.021301,231.193146 
	C660.325195,240.087784 664.673889,247.659897 672.894287,252.728851 
	C681.696777,258.156738 687.494324,266.068451 690.477112,276.055573 
	C691.299561,278.809357 691.340637,281.140778 689.623047,283.585266 
	C687.645081,286.400482 688.139465,288.986725 691.246582,290.704620 
	C693.475769,291.937164 694.255859,294.020721 695.294617,296.148529 
	C699.718262,305.209900 699.947510,315.432281 703.430237,324.736847 
	C704.263245,326.962311 704.145691,329.305389 704.382446,331.618835 
	C705.610474,343.618164 702.160706,355.322327 702.454224,367.380188 
	C702.668274,376.171661 702.344238,385.917572 696.973022,393.865265 
	C690.728149,403.106049 693.014404,414.913574 686.136353,424.772705 
	C694.368408,423.376709 696.503479,428.453766 698.208740,433.662323 
	C699.709473,438.246277 700.589905,443.042816 700.229187,447.899078 
	C698.722351,468.183136 695.187561,488.169830 688.493591,507.337128 
	C685.327698,516.402405 683.760986,524.743530 687.503967,533.758301 
	C689.218811,537.888245 688.897705,542.342224 686.024719,545.602051 
	C681.418518,550.828552 679.627808,557.109985 677.673096,563.442200 
	C676.006714,568.840210 674.415100,574.267395 672.542114,579.594360 
	C665.077637,600.824402 650.628967,617.909546 638.511475,636.358643 
	C634.414368,642.596558 629.078674,648.006531 626.272400,655.112061 
	C623.657166,661.733887 624.938965,665.292480 631.178955,668.330872 
	C656.788025,680.800110 682.961243,692.022217 708.997681,703.546570 
	C744.912964,719.443665 781.925964,732.981812 815.839539,753.170471 
	C818.638855,754.836975 819.856079,753.765442 821.497070,751.650818 
	C872.004944,686.566467 899.042480,612.681213 903.473938,530.625244 
	C905.208923,498.500214 903.016602,466.436310 896.397461,434.843475 
	C883.398926,372.802155 857.452820,316.814667 817.138794,267.756439 
	C770.247192,210.694153 712.160706,169.484344 642.245728,145.181519 
	C620.365967,137.576004 597.928711,132.297928 574.247925,128.385727 
M564.309937,239.367264 
	C562.495850,239.500671 560.028809,238.926178 558.982117,239.891586 
	C554.746277,243.798309 551.051941,241.481262 547.119812,239.654144 
	C539.175537,235.962708 530.967651,233.891708 522.032227,234.162277 
	C515.931824,234.347015 510.272675,236.557755 504.385803,236.988693 
	C492.327209,237.871429 480.316223,237.805038 468.224915,239.958725 
	C457.211609,241.920425 447.367035,247.781555 436.093292,248.230911 
	C435.340790,248.260895 434.553223,248.860107 433.884979,249.338486 
	C423.511719,256.764404 411.483765,261.460571 401.733734,270.150543 
	C396.924438,274.437012 391.854889,277.752411 390.174286,284.339905 
	C389.760254,285.962646 388.565277,287.196930 387.329437,288.370087 
	C376.253754,298.884155 370.622772,311.524384 371.066498,327.070099 
	C371.346802,336.892090 372.693542,346.587006 373.234985,356.345367 
	C374.037201,370.804321 371.575165,385.185364 370.950653,399.631073 
	C370.534149,409.265625 370.462524,418.920380 369.927979,428.557526 
	C368.515717,454.016876 368.913391,479.350739 374.257599,504.509155 
	C377.021179,517.518860 383.636383,527.304443 394.281342,534.823853 
	C396.161011,534.291443 397.128021,531.927063 399.671906,532.182068 
	C405.648926,538.741028 408.337494,548.580383 417.755096,553.403870 
	C419.291656,547.926270 418.359589,543.377014 419.609497,539.017456 
	C422.572052,528.684265 425.392487,518.249451 434.837372,511.721008 
	C446.081177,503.949066 456.496887,495.152161 467.135620,486.623688 
	C468.001373,485.929657 468.733063,484.833588 471.328064,485.731842 
	C468.537048,498.469177 455.831573,505.281769 451.684998,517.298706 
	C462.082245,517.138184 471.954468,515.843933 481.966766,513.824951 
	C470.846619,496.817596 474.200928,497.448029 479.822815,482.769562 
	C480.060822,482.148193 480.326691,481.533844 480.628540,480.941132 
	C482.441528,477.380371 485.039062,475.712341 489.185303,477.347504 
	C489.356628,481.980408 486.265381,485.159790 484.665131,488.906982 
	C482.049103,495.032593 484.648132,500.603394 491.007568,502.647522 
	C494.088074,503.637726 497.232910,503.501526 500.385773,503.688690 
	C507.290771,504.098602 513.690552,505.223236 518.398499,511.492035 
	C522.354553,516.759705 537.728760,518.543640 543.366821,514.963379 
	C551.990662,509.487030 560.418274,504.404175 571.523438,505.395386 
	C577.945862,505.968597 581.886841,499.739807 580.352112,493.326324 
	C579.623413,490.281311 578.167786,487.415558 577.139404,484.434784 
	C576.585327,482.828613 575.010437,481.275787 576.854858,479.049438 
	C582.022583,481.204834 584.572937,485.520386 586.075378,490.543304 
	C587.515381,495.357574 590.466797,499.757538 588.630005,505.409821 
	C586.896301,510.745026 581.182312,512.007385 577.680603,516.878784 
	C588.684753,519.837708 599.092346,521.031677 609.759521,525.478455 
	C606.802795,516.042175 598.433533,512.037231 595.625916,504.445007 
	C597.659668,503.028900 599.301086,503.375824 600.469727,504.132660 
	C607.341003,508.582367 613.419861,514.049866 619.307739,519.685242 
	C633.535095,533.302551 633.331238,550.825256 632.017761,568.779175 
	C638.612000,560.693054 641.073914,550.660522 646.376038,541.910767 
	C654.041443,546.525879 653.063110,536.439697 657.938660,535.722351 
	C658.185425,536.828064 658.435120,537.946838 658.751648,539.364990 
	C662.691772,532.947144 666.989868,527.340210 668.164001,520.181702 
	C670.206360,507.730072 672.703918,495.182373 672.423279,482.640259 
	C671.905884,459.528198 670.040527,436.446259 670.593750,413.295410 
	C670.617310,412.311768 670.247009,411.324646 670.200317,410.332520 
	C669.777893,401.348816 667.291199,392.602722 666.780762,383.679840 
	C666.030701,370.566559 667.143799,357.403198 665.735535,344.262695 
	C664.107239,329.067902 660.934265,314.483612 652.974792,301.157715 
	C640.164246,279.710052 621.862732,263.536530 602.745911,248.100769 
	C601.424622,247.033875 599.932007,246.159332 598.193909,246.300919 
	C588.048523,247.127396 578.802734,243.758453 569.547302,240.338181 
	C568.160706,239.825775 566.631653,239.698746 564.309937,239.367264 
M368.560883,713.976990 
	C376.810760,725.908813 387.071320,735.864502 399.058380,743.918030 
	C428.836548,763.924316 461.835999,774.520874 497.485291,777.805237 
	C520.899658,779.962341 543.607056,777.755615 565.687744,769.678101 
	C583.700562,763.088623 599.086304,753.087402 608.537415,735.690674 
	C619.664551,715.208801 614.504578,693.596863 613.438904,671.721436 
	C605.177551,677.100037 599.209839,683.869141 592.852783,690.175903 
	C575.088013,707.800415 552.992188,715.785889 528.767578,718.225769 
	C500.696320,721.053162 475.550018,711.659912 452.194244,697.176514 
	C434.173553,686.001404 420.843842,669.390564 405.744904,654.859863 
	C398.278717,647.674622 391.915283,639.533142 386.689636,630.534668 
	C385.762482,628.938049 384.886047,627.121826 382.765717,626.308350 
	C380.509766,635.190063 378.132263,643.668579 376.231781,652.252625 
	C373.774628,663.350891 370.177307,673.456787 358.179840,677.712769 
	C357.874390,677.821045 357.628082,678.085876 357.336609,678.245544 
	C355.006317,679.522766 354.374542,681.068420 355.002197,683.956726 
	C357.342468,694.726501 361.999390,704.365784 368.560883,713.976990 
M450.915100,561.564209 
	C447.198792,564.511353 450.198334,568.026917 450.376556,571.133667 
	C451.072876,583.272583 453.527344,595.223450 459.724854,605.721008 
	C463.052368,611.357178 463.084045,618.283875 467.675293,623.181030 
	C473.188232,629.061218 480.379761,633.149292 485.119781,639.939697 
	C486.356018,641.710632 489.712158,643.558228 491.493988,643.089111 
	C496.146149,641.864441 498.674438,644.307007 501.385834,647.216003 
	C502.896729,645.719360 503.880707,645.591553 506.009430,646.558228 
	C509.144318,647.981812 512.247192,650.912537 515.531372,650.532349 
	C520.669128,649.937622 525.561279,648.948547 530.417358,651.520813 
	C531.579224,652.136353 532.689941,651.438232 533.646851,650.732910 
	C534.778992,649.898560 536.354370,649.118958 537.356262,649.772278 
	C541.754517,652.640381 544.967712,649.523071 548.243774,647.702026 
	C550.857788,646.249146 554.263855,645.711304 555.556152,642.252502 
	C556.168335,640.614075 557.944458,640.805725 559.462646,640.682556 
	C563.766357,640.333740 567.659912,639.371216 568.866516,634.293701 
	C569.115173,633.247070 569.992676,632.219543 570.832764,631.463867 
	C579.946350,623.265930 584.707214,612.123413 590.906128,601.954529 
	C592.095337,600.003723 593.959229,598.207397 594.406250,596.104797 
	C596.489929,586.303772 599.492798,576.612366 598.856995,566.313721 
	C596.435181,566.430176 595.067261,568.268311 593.656860,569.795166 
	C589.485168,574.311462 584.054504,576.665710 578.787537,579.570984 
	C567.123657,586.004761 554.094849,586.925659 541.606873,589.958313 
	C537.507751,590.953735 533.144653,591.716614 528.750183,591.060791 
	C520.710449,589.861084 512.639587,588.507812 504.760223,586.783203 
	C485.907043,582.656677 467.013824,577.983643 453.137421,562.844604 
	C452.701355,562.368835 452.038391,562.101074 450.915100,561.564209 
M496.771271,576.638062 
	C502.701019,578.124146 508.766693,578.912415 514.689331,580.540588 
	C523.153015,582.867249 531.941650,581.875305 540.537048,581.501648 
	C553.258728,580.948730 565.463379,577.698181 576.775391,571.649902 
	C579.381958,570.256165 582.392944,568.688965 581.216248,564.840454 
	C579.663940,559.763306 576.798828,558.047791 571.913269,558.824646 
	C570.613464,559.031250 569.173889,559.412231 567.983398,559.069885 
	C562.868103,557.599121 558.098328,558.833923 553.377686,560.591309 
	C551.532837,561.278137 549.747864,561.547363 548.196045,560.204712 
	C545.579590,557.940979 542.708252,558.150818 539.726013,559.056519 
	C534.767822,560.562317 530.008850,561.013428 524.708740,559.647888 
	C517.402161,557.765442 509.611176,558.409424 502.118347,558.063049 
	C493.635040,557.670776 485.378571,555.711060 476.904755,555.620605 
	C473.940491,555.589050 471.974701,556.716614 470.687195,558.848694 
	C469.443176,560.908875 469.181854,563.879822 471.448456,565.187134 
	C477.264526,568.541626 482.053711,573.984863 489.273468,574.583801 
	C491.672363,574.782898 493.788727,575.650146 496.771271,576.638062 
M338.650970,477.587830 
	C337.513031,471.189667 338.105713,470.122986 344.294250,468.451843 
	C348.599854,467.289185 350.477570,465.184967 348.592865,460.551788 
	C347.812988,458.634613 346.048676,456.558105 347.556946,454.152832 
	C351.127441,454.087677 350.936951,457.512146 352.777313,459.343903 
	C353.449402,454.876129 355.764862,450.616058 354.337585,446.426605 
	C351.034393,436.731140 346.158234,428.153320 335.010406,425.540863 
	C333.882050,425.276428 332.734283,424.543243 331.828949,425.744293 
	C330.934265,426.931183 329.762115,428.434113 330.758240,429.819183 
	C332.605072,432.387299 332.861847,435.869049 335.385468,437.948212 
	C338.650116,440.637878 338.496979,443.601196 337.139648,447.290771 
	C331.402557,462.885864 329.047211,478.657623 334.389130,495.017609 
	C337.488434,504.509430 339.344330,514.220276 337.540863,524.433594 
	C336.664642,529.395752 339.703583,533.309631 343.857819,536.069519 
	C346.963074,538.132568 348.504791,537.028809 348.623688,533.513916 
	C349.099945,519.433655 349.548920,505.352478 349.995361,491.271240 
	C345.046753,492.254700 345.053467,492.251678 342.887024,487.429657 
	C341.528046,484.404877 340.145264,481.390808 338.650970,477.587830 
M683.351135,464.400024 
	C683.650146,469.187347 683.949219,473.974640 684.341736,480.258331 
	C686.477966,466.016602 689.227722,453.334137 688.379700,439.265259 
	C684.432739,442.060364 681.571655,444.098297 682.523621,448.020844 
	C683.767578,453.146454 683.114563,458.294220 683.351135,464.400024 
M535.910706,546.632446 
	C532.330139,546.948242 528.497375,545.225891 524.916016,547.737732 
	C530.347778,551.692871 533.095276,551.653809 538.912903,547.556519 
	C537.993591,547.236633 537.270569,546.985046 535.910706,546.632446 
M516.255432,547.271667 
	C518.824036,546.872375 519.200623,544.765198 518.041016,543.394531 
	C516.186646,541.202576 514.430603,542.852600 513.035828,544.308411 
	C513.271973,546.167480 514.496277,546.655090 516.255432,547.271667 
z"/>
<path fill="#000000" opacity="1.000000" stroke="none" 
	d="
M487.302734,397.616425 
	C481.106506,393.662750 474.128021,392.456116 467.629669,391.772247 
	C453.745483,390.311066 439.680450,390.999725 426.112091,394.914093 
	C420.622406,396.497803 416.174072,400.303040 412.427856,404.618927 
	C410.881714,406.400238 409.526520,407.864471 407.029144,407.047882 
	C404.372040,406.179108 403.029877,404.201691 402.724854,401.483063 
	C402.149109,396.351227 404.907501,392.796967 408.761475,390.217560 
	C412.863373,387.472321 415.564392,383.826050 418.527496,379.949371 
	C422.884735,374.248627 429.909424,370.502502 436.907532,369.971680 
	C448.091034,369.123444 459.233368,367.250885 470.652649,368.460083 
	C482.888123,369.755737 493.972290,373.443146 504.168976,380.077240 
	C508.001038,382.570465 509.366547,386.886383 511.216461,390.761566 
	C513.291138,395.107483 515.390503,399.463989 517.085938,403.964050 
	C520.989563,414.324951 520.919189,424.425201 514.275452,433.838257 
	C512.652771,436.137299 512.615417,436.110962 509.358856,437.784271 
	C507.542328,436.653290 508.097626,434.984131 508.305023,433.340363 
	C510.108826,419.043335 505.108429,408.881012 492.641663,401.817230 
	C490.717041,400.726715 489.038788,399.469635 487.302734,397.616425 
z"/>
<path fill="#000000" opacity="1.000000" stroke="none" 
	d="
M564.421387,454.453003 
	C564.651184,455.804199 565.166443,456.973755 564.228943,457.636292 
	C563.013977,458.494873 562.038940,457.464233 561.216797,456.666443 
	C557.893555,453.441315 555.907898,449.377716 554.754822,445.018250 
	C551.101624,431.207123 551.581055,418.067871 561.407654,406.494324 
	C563.761169,403.722412 565.687988,400.566528 567.627380,397.472168 
	C568.964233,395.339233 570.229797,393.105530 567.130066,391.072815 
	C565.540588,390.030426 566.289185,388.369263 567.032288,387.030945 
	C568.028259,385.237152 569.566223,383.904663 571.329895,382.952423 
	C582.374878,376.989136 594.041809,373.688477 606.702026,375.333893 
	C613.790527,376.255188 620.963257,374.842682 628.042419,376.665344 
	C641.868042,380.224945 652.009216,393.479828 653.227783,408.611511 
	C653.277100,409.223877 652.949585,409.866577 652.765564,410.627716 
	C649.148254,411.409576 646.850830,409.132446 645.077881,406.970917 
	C638.384399,398.810150 629.043823,396.698578 619.417664,395.516083 
	C612.644287,394.683990 605.804565,395.447998 599.098755,396.774872 
	C591.673767,398.244080 587.034424,404.188599 581.218689,408.235687 
	C579.723145,409.276428 578.514893,410.742615 576.989319,411.725739 
	C561.133301,421.943756 558.807861,436.317505 564.160278,453.092773 
	C564.260742,453.407562 564.296021,453.743195 564.421387,454.453003 
z"/>
<path fill="#000000" opacity="1.000000" stroke="none" 
	d="
M422.025513,415.086243 
	C426.004791,410.568420 430.703766,407.939453 436.071411,406.230316 
	C450.483154,401.641449 464.994965,400.173553 479.672516,404.720367 
	C486.142212,406.724579 491.723694,410.361298 496.073029,415.579315 
	C497.318787,417.073883 499.544952,419.335724 497.455688,421.235809 
	C495.369263,423.133331 493.258301,420.890869 492.043640,419.303955 
	C480.384369,404.071533 447.223328,403.821472 431.126038,415.792877 
	C430.761017,416.064362 430.532867,416.519806 429.558624,417.753174 
	C436.659821,416.015533 442.390259,412.746002 448.791626,412.147217 
	C466.238464,410.515259 482.429443,412.753906 494.359192,427.482819 
	C495.568359,428.975677 497.130859,430.788422 495.481293,432.836456 
	C493.920471,434.774292 491.577759,434.437592 489.435547,434.108154 
	C487.740967,433.847595 486.999725,432.576630 486.707520,430.953613 
	C486.023010,427.151886 483.405029,424.858643 480.208618,423.240173 
	C474.099548,420.146820 472.934998,420.670166 470.769470,426.991791 
	C468.094849,434.799530 467.167572,435.458344 458.985565,435.364288 
	C448.520020,435.243988 446.428589,433.996002 444.036438,426.443665 
	C442.477417,421.521515 441.805664,421.204529 437.755981,424.492157 
	C433.852753,427.660919 429.613464,429.902100 424.987854,431.958466 
	C418.911407,434.659882 414.656036,432.400330 410.403473,428.984680 
	C407.727966,426.835754 408.040161,423.968109 411.530365,423.681885 
	C417.192139,423.217651 419.181183,419.104980 422.025513,415.086243 
z"/>
<path fill="#000000" opacity="1.000000" stroke="none" 
	d="
M624.446045,420.338654 
	C626.627808,421.218994 628.470337,421.934906 631.293335,423.031860 
	C629.995483,419.467834 627.895020,417.885132 625.546387,416.480804 
	C610.284058,407.355042 595.145874,408.778717 580.025208,416.899353 
	C577.060181,418.491760 574.544067,421.027893 570.380493,421.824097 
	C571.706238,416.421448 575.664856,414.017761 579.340027,411.863861 
	C597.797546,401.046387 620.269348,403.235107 636.512695,417.133118 
	C638.677856,418.985565 640.585022,421.064514 642.066833,423.506927 
	C643.795410,426.356079 644.288208,428.737610 639.552856,428.723389 
	C641.328735,431.157440 647.317810,429.938171 644.348389,435.238739 
	C641.660767,440.036438 637.136902,440.934875 632.738708,437.742798 
	C628.855225,434.924286 624.666992,432.509308 622.093445,428.181213 
	C621.369934,426.964478 620.092590,425.924133 618.375610,426.112915 
	C617.060974,426.770538 617.354370,428.135284 617.023865,429.187317 
	C613.789978,439.481384 604.249146,443.190948 594.549744,438.108490 
	C590.794678,436.140839 590.357483,432.603546 589.908508,429.258057 
	C589.307617,424.781342 587.325256,424.867889 584.206726,426.745209 
	C581.903809,428.131531 579.929382,429.873199 578.069763,431.811523 
	C575.683289,434.299103 572.880920,435.799896 568.824768,434.708832 
	C570.113525,428.001862 574.686035,424.522369 579.895081,421.794128 
	C594.337830,414.229828 609.110840,413.653381 624.446045,420.338654 
z"/>
<path fill="#000000" opacity="1.000000" stroke="none" 
	d="
M444.529114,446.549927 
	C459.371948,448.704407 473.393097,447.519104 486.876892,441.672394 
	C487.413727,441.439636 488.139526,441.642670 489.126617,441.642670 
	C489.140289,445.926880 486.051086,447.233002 483.097778,448.451904 
	C477.512512,450.757111 471.487915,451.429779 465.596161,451.842346 
	C452.049530,452.790863 438.247498,454.382507 426.235199,445.475830 
	C425.347961,444.818024 424.023346,444.581238 423.935852,442.114868 
	C431.237671,440.978973 437.371246,445.505585 444.529114,446.549927 
z"/>
<path fill="#000000" opacity="1.000000" stroke="none" 
	d="
M596.954590,455.480621 
	C591.639404,453.803772 586.672607,452.402191 581.882202,450.545410 
	C578.296631,449.155670 575.393127,446.796539 574.411987,440.860291 
	C592.614746,452.872284 611.348755,453.873016 631.086182,447.750916 
	C629.022766,457.310394 611.081787,457.381287 596.954590,455.480621 
z"/>
<path fill="#000000" opacity="1.000000" stroke="none" 
	d="
M615.369568,442.788513 
	C610.946716,443.177643 606.829102,444.500885 602.043579,441.128998 
	C610.083618,440.356537 617.012085,439.690887 624.766052,438.945923 
	C622.045471,442.599670 618.674866,442.003174 615.369568,442.788513 
z"/>
<path fill="#000000" opacity="1.000000" stroke="none" 
	d="
M478.513916,601.029663 
	C482.352325,600.753052 484.582031,603.436890 487.431671,604.683655 
	C503.727417,611.812988 520.477600,614.980530 538.419617,612.959656 
	C550.020569,611.653076 560.958191,609.211609 571.109192,603.439087 
	C572.517883,602.638000 573.981262,601.671570 575.852783,602.397583 
	C577.109497,604.864746 576.323608,607.357239 575.438049,609.605103 
	C572.361206,617.415161 569.909058,625.402954 561.495422,629.981140 
	C556.851501,632.508118 552.876404,636.121643 547.747681,638.267883 
	C538.367188,642.193420 529.351135,642.053101 519.413879,640.465271 
	C513.121460,639.459839 508.126434,635.330383 501.814697,635.296448 
	C501.053101,635.292358 500.006714,634.975952 499.577209,634.425781 
	C492.497040,625.356323 481.379608,619.595032 477.687103,607.749634 
	C476.972351,605.456726 475.286621,603.134705 478.513916,601.029663 
z"/>
</svg>