<svg version="1.1" id="Layer_1" xmlns="http://www.w3.org/2000/svg" xmlns:xlink="http://www.w3.org/1999/xlink" x="0px" y="0px"
	 width="100%" viewBox="0 0 1024 1024" enable-background="new 0 0 1024 1024" xml:space="preserve">
<path fill="#000000" opacity="1.000000" stroke="none" 
	d="
M325.735657,355.702515 
	C342.086823,341.957306 360.524414,335.545319 381.632690,335.597412 
	C465.452240,335.804291 549.272583,335.650482 633.092651,335.704681 
	C678.642212,335.734131 715.802246,365.080811 724.685791,409.695343 
	C736.421143,468.632385 692.713013,517.508057 641.402588,521.426575 
	C635.744324,521.858704 630.110107,522.124451 624.446533,522.083862 
	C622.826355,522.072266 621.120300,521.874390 618.949646,523.718384 
	C655.068604,578.738342 691.169800,633.731323 727.191467,688.603149 
	C724.969910,690.878662 723.037109,690.260437 721.312561,690.268616 
	C709.648010,690.323975 697.978577,690.103882 686.320557,690.382812 
	C681.984314,690.486572 679.386414,689.115784 676.970703,685.444641 
	C648.214844,641.743469 619.292480,598.151855 590.398499,554.541565 
	C584.049011,544.958069 577.553528,535.469971 571.313477,525.816284 
	C569.560059,523.103760 567.520325,522.016541 564.338928,522.120178 
	C558.512573,522.309998 552.661438,522.431519 546.848083,522.099976 
	C542.342102,521.842896 540.773010,523.576843 541.278076,527.880066 
	C541.447266,529.321106 541.588196,530.887329 540.131897,533.175537 
	C514.846252,516.312805 489.587982,499.468323 463.660339,482.177460 
	C466.855713,480.367828 469.214203,480.948578 471.439301,480.945526 
	C526.096924,480.870270 580.754944,480.933289 635.412048,480.735504 
	C657.461243,480.655731 675.964172,467.064728 683.298950,446.268372 
	C695.533020,411.581451 670.889404,376.319550 634.210144,376.252289 
	C581.385376,376.155457 528.560120,376.286530 475.735657,376.114777 
	C470.596313,376.098083 469.060333,377.756622 469.249054,382.722961 
	C469.577881,391.375671 469.215668,400.052551 469.398346,408.713928 
	C469.472717,412.241547 468.462738,413.948975 464.675262,413.904572 
	C454.345184,413.783356 444.012360,413.812164 433.681458,413.892303 
	C430.014130,413.920746 428.739899,412.276062 428.799469,408.700012 
	C428.943787,400.037354 428.571045,391.360321 428.911682,382.708923 
	C429.105743,377.780304 427.746399,375.977081 422.527161,376.103790 
	C408.371002,376.447510 394.201141,376.213013 380.036743,376.235291 
	C362.530792,376.262787 348.205658,385.317261 341.865936,400.326294 
	C335.081146,416.388977 338.151154,434.041168 351.068359,446.296570 
	C363.507080,458.098053 376.756989,469.045044 389.660858,480.355652 
	C415.094971,502.649475 440.746002,524.701538 465.914337,547.291443 
	C489.992004,568.902344 498.201721,596.330566 491.045502,627.463074 
	C483.915771,658.480164 464.498383,679.061951 433.489990,687.941650 
	C427.876465,689.549194 422.094940,690.320435 416.232910,690.320618 
	C380.905182,690.321533 345.577118,690.246887 310.250214,690.419312 
	C305.660919,690.441650 304.444855,689.195496 304.496338,684.537964 
	C304.770874,659.711487 304.742188,634.879822 304.564728,610.051819 
	C304.531555,605.409302 305.674133,603.499634 310.667664,603.679626 
	C320.487091,604.033508 330.329498,603.920532 340.158325,603.757080 
	C344.026215,603.692749 345.448090,605.036621 345.386383,608.979370 
	C345.198669,620.974487 345.436584,632.976196 345.254150,644.971497 
	C345.197052,648.726868 346.576538,649.897583 350.199249,649.875000 
	C372.361603,649.736816 394.527588,649.950012 416.687164,649.655762 
	C434.839844,649.414856 451.249878,632.918213 452.807983,614.439453 
	C454.162842,598.371155 448.477234,585.481506 436.473175,575.040222 
	C406.050262,548.577942 375.612610,522.132202 345.287842,495.557709 
	C334.905518,486.459290 323.547150,478.334137 315.075684,467.237061 
	C289.658142,433.941681 293.021637,384.324890 325.735657,355.702515 
z"/>
<path fill="#000000" opacity="1.000000" stroke="none" 
	d="
M541.293823,575.000000 
	C541.294983,611.481812 541.299194,647.463562 541.294983,683.445374 
	C541.294189,690.304565 541.278870,690.312561 534.359802,690.317566 
	C525.364380,690.323975 516.368896,690.325012 507.373474,690.311646 
	C500.722687,690.301758 500.692963,690.289795 500.690735,683.743286 
	C500.677460,644.596436 500.678558,605.449524 500.675903,566.302673 
	C500.675018,553.142639 500.677490,539.982666 500.678406,526.822632 
	C500.678528,525.185608 500.678436,523.548584 500.678436,522.041443 
	C503.242188,520.896179 504.577332,522.544861 505.977112,523.472412 
	C516.527344,530.463867 526.965088,537.626221 537.560120,544.548157 
	C540.435425,546.426636 541.428040,548.682861 541.347168,552.012756 
	C541.165222,559.504517 541.292542,567.003784 541.293823,575.000000 
z"/>
<path fill="#000000" opacity="1.000000" stroke="none" 
	d="
M541.300171,423.000061 
	C541.299744,436.817383 541.104187,450.139038 541.400269,463.449768 
	C541.509521,468.363007 540.206604,470.322571 535.010559,470.143158 
	C525.534241,469.815887 516.033447,469.951782 506.550201,470.188080 
	C502.353424,470.292664 500.603363,469.077698 500.635712,464.556458 
	C500.806000,440.752991 500.775452,416.947266 500.646790,393.143219 
	C500.625397,389.186890 501.655945,387.469513 505.966339,387.582001 
	C516.113953,387.846741 526.275146,387.788452 536.426453,387.610046 
	C540.126953,387.545013 541.407715,388.886871 541.349915,392.536896 
	C541.191833,402.522369 541.298279,412.512024 541.300171,423.000061 
z"/>
</svg>